# xmcd CD database file
#
# Track frame offsets:
#	150
#	34035
#	58289
#	66354
#	82837
#	100406
#	112187
#	134876
#	161857
#
# Disc length: 2507 seconds
#
# Revision: 0
# Processed by: cddbd v1.5.2PL0 Copyright (c) Steve Scherf et al.
# Submitted via: CDex 1.70beta2
#
DISCID=8809c909
DTITLE=Qüntêt - Faux Semblant
DYEAR=2008
DGENRE=Jazz
TTITLE0=Faux semblant
TTITLE1=Isasong
TTITLE2=De Noël à Pâques
TTITLE3=Réminidanse
TTITLE4=Polka
TTITLE5=Pépin Le Bref
TTITLE6=Total Schwarz
TTITLE7=Un poco Tango, un poco Paso, mucho Loco
TTITLE8=Prolongement Bulgare
EXTD=YEAR: 2008
EXTT0=
EXTT1=
EXTT2=
EXTT3=
EXTT4=
EXTT5=
EXTT6=
EXTT7=
EXTT8=
PLAYORDER=
